<svg width="2055" height="1292" viewBox="0 0 2055 1292" fill="none" xmlns="http://www.w3.org/2000/svg">
<g id="Frame 1">
<g id="plant">
<path id="Vector" d="M400 1108.83C400 1157.69 429.8 1197.23 466.627 1197.23Z" fill="#3F3D56"/>
<path id="Vector_2" d="M466.627 1197.23C466.627 1147.82 499.882 1107.83 540.978 1107.83Z" fill="#6C63FF"/>
<path id="Vector_3" d="M424.14 1113.26C424.14 1159.67 443.143 1197.23 466.627 1197.23Z" fill="#6C63FF"/>
<path id="Vector_4" d="M466.627 1197.23C466.627 1134.09 505.064 1083 552.566 1083Z" fill="#3F3D56"/>
<path id="Vector_5" d="M452.61 1197.86C452.61 1197.86 462.059 1197.56 464.907 1195.47C467.754 1193.39 479.441 1190.89 480.148 1194.24C480.854 1197.59 494.347 1210.88 483.68 1210.97C473.012 1211.06 458.893 1209.26 456.051 1207.48C453.209 1205.7 452.61 1197.86 452.61 1197.86Z" fill="#A8A8A8"/>
<path id="Vector_6" opacity="0.2" d="M483.87 1209.8C473.202 1209.89 459.083 1208.09 456.241 1206.31C454.077 1204.96 453.214 1200.09 452.926 1197.84C452.726 1197.85 452.61 1197.86 452.61 1197.86C452.61 1197.86 453.209 1205.7 456.051 1207.48C458.893 1209.26 473.012 1211.06 483.68 1210.97C486.759 1210.94 487.823 1209.82 487.764 1208.15C487.336 1209.15 486.162 1209.78 483.87 1209.8Z" fill="black"/>
</g>
<g id="fire">
<path id="Vector_7" opacity="0.1" d="M1176.03 1152.28C1180.43 1152.28 1184.65 1150.82 1187.76 1148.22C1190.87 1145.63 1192.62 1142.1 1192.62 1138.43C1192.62 1134.75 1190.87 1131.22 1187.76 1128.63C1184.65 1126.03 1180.43 1124.57 1176.03 1124.57H1039.59C1043.99 1131.92 1044.72 1140.43 1041.61 1148.22C1038.49 1156.02 1031.8 1162.47 1023 1166.14C1023 1169.82 1024.75 1173.34 1027.86 1175.94C1030.97 1178.54 1035.19 1180 1039.59 1180H1176.03C1180.43 1180 1184.65 1178.54 1187.76 1175.94C1190.87 1173.34 1192.62 1169.82 1192.62 1166.14C1192.62 1162.47 1190.87 1158.94 1187.76 1156.34C1184.65 1153.74 1180.43 1152.28 1176.03 1152.28V1152.28Z" fill="#F2F2F2"/>
<path id="Vector_8" d="M1168.65 1101.47C1168.65 1152.49 1141.41 1138.43 1107.81 1138.43C1074.21 1138.43 1046.97 1152.49 1046.97 1101.47C1046.97 1050.44 1107.81 953.648 1107.81 953.648C1107.81 953.648 1168.65 1050.45 1168.65 1101.47Z" fill="#FF6584"/>
<path id="Vector_9" opacity="0.1" d="M1135.47 1120.99C1135.47 1144.19 1123.09 1137.79 1107.81 1137.79C1092.54 1137.79 1080.16 1144.19 1080.16 1120.99C1080.16 1097.8 1107.81 1053.8 1107.81 1053.8C1107.81 1053.8 1135.47 1097.8 1135.47 1120.99Z" fill="black"/>
<path id="Vector_10" d="M1184 974C1184 974 1209.5 958.35 1208.99 943Z" fill="#FF6584"/>
<path id="Vector_11" d="M1055 889C1055 889 1042.32 863.052 1015 854Z" fill="#FF6584"/>
<path id="Vector_12" d="M1078 954C1078 954 1069.76 929.534 1052 921Z" fill="#FF6584"/>
<path id="Vector_13" d="M1173 1125C1173 1125 1196.46 1108.85 1195.99 1093Z" fill="#FF6584"/>
<path id="Vector_14" d="M1196 1039C1196 1039 1221.5 1024.86 1220.99 1011Z" fill="#FF6584"/>
</g>
<g id="plant2">
<path id="Vector_15" d="M1433 1074.59C1433 1145.7 1476.37 1203.24 1529.96 1203.24Z" fill="#3F3D56"/>
<path id="Vector_16" d="M1529.96 1203.24C1529.96 1131.33 1578.36 1073.14 1638.16 1073.14Z" fill="#6C63FF"/>
<path id="Vector_17" d="M1468.13 1081.03C1468.13 1148.58 1495.79 1203.24 1529.96 1203.24Z" fill="#6C63FF"/>
<path id="Vector_18" d="M1529.96 1203.24C1529.96 1111.35 1585.9 1037 1655.03 1037Z" fill="#3F3D56"/>
<path id="Vector_19" d="M1509.56 1204.15C1509.56 1204.15 1523.31 1203.71 1527.46 1200.68C1531.6 1197.64 1548.61 1194.02 1549.64 1198.89C1550.67 1203.76 1570.3 1223.1 1554.78 1223.23C1539.25 1223.36 1518.71 1220.74 1514.57 1218.15C1510.43 1215.56 1509.56 1204.15 1509.56 1204.15Z" fill="#A8A8A8"/>
<path id="Vector_20" opacity="0.2" d="M1555.06 1221.54C1539.53 1221.66 1518.98 1219.05 1514.85 1216.46C1511.7 1214.48 1510.44 1207.4 1510.02 1204.13C1509.73 1204.14 1509.56 1204.15 1509.56 1204.15C1509.56 1204.15 1510.43 1215.56 1514.57 1218.15C1518.71 1220.74 1539.25 1223.36 1554.78 1223.23C1559.26 1223.19 1560.81 1221.55 1560.72 1219.12C1560.1 1220.59 1558.39 1221.51 1555.06 1221.54Z" fill="black"/>
</g>
<g id="stone" filter="url(#filter0_d_20_13)">
<path id="Vector_21" d="M1219.01 1252.66C1219.01 1252.66 1233.2 1250.44 1237.13 1246.76C1241.05 1243.08 1258.22 1237.14 1259.88 1242.05C1261.54 1246.96 1284.23 1264.47 1268.17 1266.6C1252.1 1268.73 1230.5 1268.67 1225.9 1266.51C1221.3 1264.36 1219.01 1252.66 1219.01 1252.66Z" fill="#A8A8A8"/>
<path id="Vector_22" d="M635.126 1251.79C635.126 1251.79 647.101 1249.91 650.412 1246.81C653.722 1243.7 668.217 1238.69 669.616 1242.83C671.014 1246.97 690.165 1261.75 676.608 1263.55C663.051 1265.35 644.822 1265.3 640.941 1263.48C637.059 1261.66 635.126 1251.79 635.126 1251.79Z" fill="#A8A8A8"/>
<path id="Vector_23" opacity="0.2" d="M351.347 1229.03C340.793 1230.43 326.601 1230.39 323.579 1228.98C321.278 1227.9 319.858 1223.19 319.311 1221C319.114 1221.03 319 1221.05 319 1221.05C319 1221.05 320.505 1228.74 323.526 1230.15C326.548 1231.57 340.74 1231.61 351.294 1230.21C354.34 1229.81 355.262 1228.56 355.01 1226.91C354.704 1227.96 353.614 1228.73 351.347 1229.03Z" fill="black"/>
<path id="Vector_24" d="M968 1273.19C968 1273.19 977.322 1271.74 979.9 1269.32C982.477 1266.9 993.761 1263 994.85 1266.22C995.939 1269.45 1010.85 1280.95 1000.29 1282.35C989.74 1283.75 975.548 1283.71 972.526 1282.3C969.505 1280.88 968 1273.19 968 1273.19Z" fill="#A8A8A8"/>
</g>
<g id="tree2">
<path id="Vector_25" d="M1438 696.617C1438.63 814.253 1342.64 910 1342.64 910C1342.64 910 1245.63 815.02 1245 697.383C1244.37 579.747 1340.36 484 1340.36 484C1340.36 484 1437.37 578.98 1438 696.617Z" fill="#3F3D56"/>
<path id="Vector_26" d="M1346 698H1336V1048H1346V698Z" fill="#3F3D56"/>
</g>
<g id="boy">
<path id="Vector_27" d="M759.94 960.346C756.836 961.978 753.885 963.901 751.126 966.092C748.355 968.3 746.233 971.255 744.997 974.629C743.444 970.889 742.175 967.031 741.202 963.09C739.014 956.016 736.425 949.08 733.448 942.318C738.334 940.403 742.57 937.062 745.636 932.704C751.63 938.843 757.794 945.247 760.777 953.39C761.29 954.793 762.786 956.289 763.133 957.545C763.624 959.323 761.25 959.605 759.94 960.346Z" fill="#FFBFC5"/>
<path id="Vector_28" d="M816.355 1110.03C822.904 1112.15 829.011 1115.52 834.365 1119.94C834.768 1120.2 835.06 1120.61 835.183 1121.08C835.319 1122.15 833.934 1122.58 832.929 1122.88C829.973 1123.75 828.084 1126.61 825.907 1128.85C823.73 1131.08 820.232 1132.84 817.692 1131.05C817.025 1130.53 816.443 1129.9 815.967 1129.18L805.238 1114.78C808.876 1112.68 812.701 1110.96 816.66 1109.62" fill="#F1F1F1"/>
<path id="Vector_29" d="M835.643 1113.02C837.063 1114.51 837.68 1116.66 839.074 1118.18C840.012 1119.1 841.082 1119.86 842.248 1120.44L850.457 1125.09C851.719 1125.86 853.047 1126.5 854.424 1127.02C855.971 1127.46 857.544 1127.8 859.135 1128.03C861.41 1128.47 863.636 1129.14 865.778 1130.05C867.387 1130.72 869.182 1131.89 869.174 1133.68C869.109 1134.56 868.762 1135.38 868.19 1136.03C864.953 1140.23 859.224 1141.16 854.047 1141.72C842.841 1142.94 831.373 1143.85 820.419 1141.14C818.28 1140.73 816.259 1139.83 814.508 1138.5C811.203 1135.69 810.545 1130.55 811.779 1126.32C812.128 1124.7 813.061 1123.28 814.389 1122.33C816.124 1121.31 818.286 1121.78 820.28 1121.62C822.401 1121.33 824.456 1120.65 826.354 1119.63C827.607 1119.05 829.049 1118.3 829.317 1116.77C829.566 1115.35 827.942 1113.93 828.284 1112.66C829.041 1109.84 834.334 1111.65 835.643 1113.02Z" fill="#575A89"/>
<path id="Vector_30" opacity="0.1" d="M835.643 1113.02C837.063 1114.51 837.68 1116.66 839.074 1118.18C840.012 1119.1 841.082 1119.86 842.248 1120.44L850.457 1125.09C851.719 1125.86 853.047 1126.5 854.424 1127.02C855.971 1127.46 857.544 1127.8 859.135 1128.03C861.41 1128.47 863.636 1129.14 865.778 1130.05C867.387 1130.72 869.182 1131.89 869.174 1133.68C869.109 1134.56 868.762 1135.38 868.19 1136.03C864.953 1140.23 859.224 1141.16 854.047 1141.72C842.841 1142.94 831.373 1143.85 820.419 1141.14C818.28 1140.73 816.259 1139.83 814.508 1138.5C811.203 1135.69 810.545 1130.55 811.779 1126.32C812.128 1124.7 813.061 1123.28 814.389 1122.33C816.124 1121.31 818.286 1121.78 820.28 1121.62C822.401 1121.33 824.456 1120.65 826.354 1119.63C827.607 1119.05 829.049 1118.3 829.317 1116.77C829.566 1115.35 827.942 1113.93 828.284 1112.66C829.041 1109.84 834.334 1111.65 835.643 1113.02Z" fill="black"/>
<path id="Vector_31" d="M854.689 1159.15C855.839 1159.93 856.988 1160.71 858.137 1161.49C859.194 1162.07 860.065 1162.95 860.643 1164.03C861.39 1165.84 860.379 1167.89 859.254 1169.48C855.88 1174.22 851.274 1177.89 845.964 1180.07C844.122 1180.86 842.177 1181.36 840.191 1181.55C839.737 1181.62 839.272 1181.56 838.849 1181.38C837.798 1180.81 837.949 1179.26 837.937 1178.04C837.9 1174.49 835.295 1171.61 832.954 1169C830.613 1166.4 828.226 1163.19 828.762 1159.68C829.248 1157.62 830.276 1155.73 831.734 1154.23C833.031 1152.55 834.553 1151.08 836.253 1149.84C838.688 1148.2 839.547 1149.09 841.839 1150.59C846.143 1153.41 850.426 1156.26 854.689 1159.15Z" fill="#F1F1F1"/>
<path id="Vector_32" d="M843.482 1176.44C844.42 1176.68 845.401 1176.69 846.344 1176.47C847.288 1176.25 848.169 1175.81 848.914 1175.18C850.394 1173.89 851.596 1172.3 852.441 1170.51C853.279 1168.92 854.009 1167.26 854.625 1165.57C855.346 1163.58 856.015 1161.38 857.713 1160.17C859.772 1158.71 862.673 1159.28 864.766 1160.69C866.74 1162.27 868.552 1164.06 870.175 1166.02C874.523 1170.19 879.794 1173.21 885.533 1174.81C891.246 1176.4 897.038 1177.67 902.883 1178.63C904.051 1178.79 905.182 1179.16 906.222 1179.73C908.571 1181.21 909.355 1184.5 908.701 1187.25C907.872 1189.96 906.384 1192.41 904.378 1194.37C902.799 1196.3 900.84 1197.86 898.632 1198.95C896.764 1199.65 894.798 1200.03 892.81 1200.08C883.184 1200.75 873.513 1199.98 864.107 1197.77C860.651 1196.8 857.135 1196.08 853.584 1195.61C851.419 1195.41 849.239 1195.47 847.071 1195.32C842.76 1195.02 838.545 1193.87 834.65 1191.95C833.701 1191.59 832.902 1190.91 832.385 1190.02C832.105 1189.2 832.047 1188.31 832.217 1187.46L833.655 1174.51C833.78 1173.38 834.145 1171.98 835.235 1171.8C836.272 1171.63 837.026 1172.73 837.678 1173.57C838.944 1175.13 840.678 1176.21 842.607 1176.65C844.536 1177.08 846.55 1176.84 848.333 1175.97" fill="#575A89"/>
<path id="Vector_33" d="M760.115 1013.11C766.433 1012.38 773.76 1012.26 778.032 1017.1C780.651 1020.07 781.447 1024.23 782.353 1028.13C783.771 1034.68 786.075 1041 789.198 1046.89C791.208 1050.54 793.643 1053.96 795.185 1057.85C796.765 1061.83 797.347 1066.13 798.27 1070.33C801.974 1086.89 811.014 1101.68 823.922 1112.3C821.643 1118.68 815.052 1122.32 808.64 1123.95C807.281 1124.54 805.767 1124.65 804.343 1124.25C802.918 1123.85 801.666 1122.97 800.788 1121.75C797.787 1118.41 794.993 1114.89 792.422 1111.2C783.18 1098.51 773.797 1085.54 768.763 1070.55C766.996 1065.29 765.229 1059.15 760.259 1056.95C757.424 1055.7 754.183 1056.09 751.141 1056.62C744.343 1057.81 737.652 1059.57 731.139 1061.9C724.195 1064.39 716.245 1067.45 709.889 1063.64C706.086 1061.37 703.823 1057 702.988 1052.56C702.359 1048.07 702.353 1043.51 702.97 1039.03C703.012 1037 703.486 1035 704.358 1033.18C705.237 1031.82 706.365 1030.64 707.679 1029.72C713.355 1025.28 719.667 1021.79 726.389 1019.35C732.811 1017.02 739.713 1016.23 746.412 1015.08C750.961 1014.3 755.529 1013.64 760.115 1013.11Z" fill="#575A89"/>
<path id="Vector_34" opacity="0.1" d="M760.115 1013.11C766.433 1012.38 773.76 1012.26 778.032 1017.1C780.651 1020.07 781.447 1024.23 782.353 1028.13C783.771 1034.68 786.075 1041 789.198 1046.89C791.208 1050.54 793.643 1053.96 795.185 1057.85C796.765 1061.83 797.347 1066.13 798.27 1070.33C801.974 1086.89 811.014 1101.68 823.922 1112.3C821.643 1118.68 815.052 1122.32 808.64 1123.95C807.281 1124.54 805.767 1124.65 804.343 1124.25C802.918 1123.85 801.666 1122.97 800.788 1121.75C797.787 1118.41 794.993 1114.89 792.422 1111.2C783.18 1098.51 773.797 1085.54 768.763 1070.55C766.996 1065.29 765.229 1059.15 760.259 1056.95C757.424 1055.7 754.183 1056.09 751.141 1056.62C744.343 1057.81 737.652 1059.57 731.139 1061.9C724.195 1064.39 716.245 1067.45 709.889 1063.64C706.086 1061.37 703.823 1057 702.988 1052.56C702.359 1048.07 702.353 1043.51 702.97 1039.03C703.012 1037 703.486 1035 704.358 1033.18C705.237 1031.82 706.365 1030.64 707.679 1029.72C713.355 1025.28 719.667 1021.79 726.389 1019.35C732.811 1017.02 739.713 1016.23 746.412 1015.08C750.961 1014.3 755.529 1013.64 760.115 1013.11Z" fill="black"/>
<path id="Vector_35" d="M796.281 1059.98C799.211 1061.5 801.903 1063.47 804.264 1065.81C806.701 1068.77 808.552 1072.18 809.713 1075.87C810.233 1077.1 810.552 1078.41 810.657 1079.74C810.704 1080.41 810.603 1081.09 810.361 1081.71C810.118 1082.33 809.742 1082.89 809.259 1083.34C808.089 1084.11 806.701 1084.46 805.317 1084.33C803.485 1084.35 801.653 1084.3 799.823 1084.19C798.711 1084.18 797.609 1083.96 796.571 1083.55C795.619 1083.05 794.761 1082.38 794.036 1081.58C790.816 1078.5 788.179 1074.84 786.257 1070.77C784.931 1067.76 782.748 1060.83 784.835 1057.7C786.986 1054.47 794.007 1058.65 796.281 1059.98Z" fill="#FFBFC5"/>
<path id="Vector_36" d="M707.705 1058.9C717.048 1061.98 726.994 1062.34 736.763 1063.27C753.194 1064.85 769.425 1068.15 785.205 1073.12C788.5 1073.95 791.604 1075.44 794.338 1077.5C796.45 1079.51 798.238 1081.85 799.637 1084.43C802.204 1088.46 804.528 1092.64 806.598 1096.95C808.372 1100.86 809.725 1104.94 811.376 1108.9C816.923 1122.15 825.694 1133.71 836.845 1142.46C838.882 1144.06 841.151 1145.79 841.675 1148.37C841.91 1150.03 841.647 1151.72 840.921 1153.22C838.512 1158.99 833.511 1163.19 828.266 1166.41C826.009 1167.79 823.528 1169.19 822.418 1171.64C814.444 1168.25 808.517 1161.03 803.582 1153.75C798.648 1146.47 794.271 1138.65 787.947 1132.61C785.162 1129.95 781.996 1127.63 779.806 1124.44C776.462 1119.56 775.557 1112.89 771.055 1109.13C766.521 1105.34 760.017 1105.86 754.203 1106.44C724.422 1109.44 694.413 1109.11 664.702 1105.45C658.525 1104.68 652.179 1103.71 646.829 1100.45C641.478 1097.18 637.312 1091.06 638.071 1084.71C638.781 1078.76 643.595 1074.05 648.96 1071.72C654.326 1069.39 660.257 1068.97 666.043 1068.3C680.243 1066.88 694.229 1063.72 707.705 1058.9V1058.9Z" fill="#575A89"/>
<path id="Vector_37" d="M622.273 1071.25C623.006 1066.21 624.909 1061.43 626.104 1056.49C626.703 1053.37 627.46 1050.3 628.374 1047.26C628.404 1047.18 628.438 1047.1 628.469 1047.01C628.773 1046.98 629.067 1046.89 629.332 1046.73C629.596 1046.58 629.824 1046.37 630 1046.11C630.162 1045.67 630.207 1045.19 630.129 1044.72C630.105 1044.23 630.12 1043.74 630.172 1043.24C632.126 1039.87 634.261 1036.62 636.568 1033.49C640.614 1027.59 644.118 1021.33 647.616 1015.07C650.484 1009.94 653.356 1004.8 655.73 999.413C657.51 995.372 659.007 991.196 660.975 987.248C667.98 973.194 680.571 962.844 694.114 955.405C707.104 948.27 721.148 943.46 734.807 937.786C735.158 938.142 735.477 938.528 735.76 938.943C743.14 949.319 743.935 962.957 746.972 975.429C748.198 980.464 749.837 985.482 749.834 990.674C749.83 998.336 746.27 1005.46 742.732 1012.21C739.569 1018.65 735.836 1024.78 731.578 1030.52C729.488 1033.18 727.186 1035.66 725.085 1038.31C716.475 1049.17 711.503 1062.52 706.67 1075.63C703.872 1083.21 699.299 1089.94 696.223 1097.41C695.041 1100.28 694.358 1103.38 692.874 1106.1C691.389 1108.82 688.805 1111.21 685.774 1111.22C684.887 1111.2 684.007 1111.06 683.155 1110.8C672.183 1107.9 662.994 1100.43 653.876 1093.51C652.248 1092.28 650.611 1091.05 648.904 1089.94C647.179 1088.82 645.388 1087.81 643.598 1086.8C642.241 1086.03 640.885 1085.27 639.528 1084.5C635.082 1082 630.63 1079.49 625.998 1077.37C624.605 1076.79 623.268 1076.09 622.001 1075.26C621.988 1073.92 622.078 1072.58 622.273 1071.25V1071.25Z" fill="#6C63FF"/>
<path id="Vector_38" d="M765.727 959.485C779.689 959.485 791.008 947.841 791.008 933.478C791.008 919.115 779.689 907.471 765.727 907.471C751.765 907.471 740.446 919.115 740.446 933.478C740.446 947.841 751.765 959.485 765.727 959.485Z" fill="#FFBFC5"/>
<path id="Vector_39" d="M782.733 921.31C783.344 922.409 784.27 923.287 785.384 923.826C786.498 924.365 787.746 924.537 788.959 924.32C790.165 924.071 791.306 923.563 792.307 922.828C793.308 922.093 794.147 921.149 794.769 920.057C795.998 917.861 796.734 915.41 796.922 912.884C797.118 911.914 797.127 910.913 796.946 909.94C796.765 908.967 796.399 908.04 795.868 907.213C794.926 906.273 793.843 905.494 792.662 904.906C791.033 903.859 789.666 902.435 788.669 900.746C787.961 899.544 787.454 898.23 786.817 896.987C784.518 892.493 780.044 888.84 775.11 889.005C772.741 889.085 770.482 890.012 768.147 890.433C760.309 891.847 751.79 887.581 744.519 890.908C742.73 891.803 741.067 892.944 739.575 894.299C737.529 896.036 735.561 897.866 733.673 899.788C732.033 901.226 730.792 903.084 730.076 905.174C729.088 908.99 731.437 913.253 729.942 916.89C729.431 917.932 728.82 918.918 728.119 919.835C726.47 922.324 728.262 932.039 728.08 935.046C727.869 936.518 728.233 938.015 729.091 939.213C730.284 940.58 732.29 940.699 734.075 940.722L737.358 940.762C737.848 940.797 738.34 940.745 738.814 940.608C739.458 940.313 740.024 939.864 740.465 939.298C743.195 936.339 743.786 926.663 747.752 926.698C748.354 926.664 748.951 926.823 749.462 927.154C750.18 927.696 750.392 928.691 750.901 929.444C751.483 930.151 752.271 930.646 753.148 930.857C754.025 931.067 754.944 930.982 755.771 930.613C757.409 929.835 758.833 928.651 759.917 927.167C760.997 925.686 762.307 924.399 763.794 923.357C765.907 922.089 768.295 921.537 770.351 920.105C772.07 918.907 773.048 917.17 774.59 915.847C775.207 915.3 775.982 914.978 776.795 914.931C777.608 914.885 778.413 915.115 779.085 915.588C781.517 916.894 781.624 919.035 782.733 921.31Z" fill="#2F2E41"/>
<path id="Vector_40" opacity="0.1" d="M724.321 967.131C730.225 966.268 736.242 966.765 741.937 968.586C743.838 969.033 745.555 970.081 746.847 971.583C747.581 972.721 748.059 974.013 748.246 975.365C749.407 981.585 748.662 988.022 746.114 993.787C745.932 994.075 745.811 994.399 745.761 994.739C745.71 995.078 745.73 995.425 745.819 995.756C746.076 996.157 746.411 996.499 746.803 996.759C747.158 997.11 747.436 997.534 747.62 998.004C747.804 998.474 747.888 998.979 747.868 999.485C747.848 999.991 747.724 1000.49 747.504 1000.94C747.285 1001.39 746.974 1001.79 746.592 1002.11C746.121 1002.47 745.502 1002.77 745.41 1003.37C745.31 1004.01 745.9 1004.52 746.359 1004.97C747.032 1005.65 747.529 1006.49 747.803 1007.42C748.077 1008.35 748.12 1009.33 747.927 1010.28C747.679 1011.04 747.509 1011.83 747.42 1012.63C747.515 1013.61 747.795 1014.56 748.244 1015.43C749.013 1017.39 749.275 1019.51 749.006 1021.61C748.762 1022.6 748.738 1023.63 748.937 1024.63C749.214 1025.29 749.59 1025.9 750.053 1026.45C751.87 1028.97 752.269 1033.18 749.633 1034.77C750.761 1035.36 751.68 1036.3 752.263 1037.46C752.845 1038.62 753.061 1039.94 752.881 1041.23C754.455 1040.36 756.363 1041.47 757.674 1042.71C758.985 1043.96 760.325 1045.48 762.107 1045.57C763.35 1045.64 764.659 1044.97 765.792 1045.5C767.516 1046.3 767.458 1049.18 769.153 1050.04C770.64 1050.8 772.711 1049.56 773.979 1050.66C774.42 1051.05 774.644 1051.64 775.07 1052.04C776.032 1052.95 777.534 1052.56 778.838 1052.51C780.383 1052.55 781.89 1053.01 783.21 1053.84C784.529 1054.67 785.615 1055.84 786.36 1057.23C787.815 1060.04 788.693 1063.12 788.939 1066.29C789.272 1068.02 789.239 1069.79 788.842 1071.5C788.629 1072.35 788.177 1073.12 787.542 1073.71C786.908 1074.3 786.12 1074.68 785.276 1074.81C769.761 1075.84 754.451 1072.01 739.345 1068.23C734.908 1067.12 730.395 1065.82 726.694 1063.07C723.332 1060.56 720.86 1057.03 718.449 1053.55C714.003 1047.15 709.529 1040.69 706.347 1033.54C702.252 1024.33 700.426 1014.25 698.636 1004.29C698.019 1001.62 697.8 998.867 697.986 996.129C698.522 992.926 699.713 989.877 701.478 987.182C703.612 983.609 705.974 980.184 708.546 976.93C712.455 971.781 718.071 968.293 724.321 967.131Z" fill="black"/>
<path id="Vector_41" d="M725.344 976.079C731.248 975.216 737.265 975.713 742.96 977.534C744.861 977.98 746.578 979.028 747.869 980.53C748.604 981.668 749.082 982.961 749.269 984.313C750.43 990.532 749.685 996.969 747.137 1002.73C746.955 1003.02 746.834 1003.35 746.784 1003.69C746.733 1004.03 746.753 1004.37 746.842 1004.7C747.099 1005.1 747.434 1005.45 747.826 1005.71C748.181 1006.06 748.459 1006.48 748.643 1006.95C748.827 1007.42 748.911 1007.93 748.891 1008.43C748.871 1008.94 748.747 1009.43 748.527 1009.89C748.308 1010.34 747.997 1010.74 747.615 1011.06C747.144 1011.41 746.525 1011.72 746.433 1012.32C746.332 1012.96 746.923 1013.47 747.382 1013.92C748.055 1014.6 748.552 1015.44 748.826 1016.37C749.1 1017.3 749.143 1018.28 748.95 1019.23C748.702 1019.99 748.532 1020.78 748.442 1021.58C748.538 1022.56 748.818 1023.51 749.267 1024.37C750.036 1026.33 750.298 1028.46 750.029 1030.55C749.785 1031.54 749.761 1032.58 749.959 1033.58C750.237 1034.24 750.613 1034.85 751.076 1035.39C752.893 1037.91 753.292 1042.13 750.656 1043.71C751.784 1044.31 752.703 1045.25 753.285 1046.41C753.868 1047.57 754.084 1048.89 753.904 1050.18C755.478 1049.31 757.386 1050.42 758.697 1051.66C760.008 1052.91 761.348 1054.43 763.13 1054.52C764.373 1054.59 765.682 1053.92 766.815 1054.45C768.539 1055.25 768.48 1058.12 770.176 1058.99C771.663 1059.74 773.734 1058.51 775.002 1059.61C775.443 1059.99 775.667 1060.59 776.093 1060.99C777.055 1061.89 778.557 1061.51 779.861 1061.46C781.406 1061.5 782.913 1061.96 784.232 1062.79C785.552 1063.62 786.638 1064.79 787.383 1066.18C788.838 1068.99 789.716 1072.07 789.962 1075.24C790.295 1076.96 790.262 1078.74 789.865 1080.45C789.652 1081.3 789.2 1082.07 788.565 1082.66C787.931 1083.24 787.143 1083.63 786.299 1083.76C770.784 1084.79 755.474 1080.96 740.368 1077.18C735.931 1076.07 731.418 1074.77 727.717 1072.01C724.355 1069.51 721.883 1065.97 719.472 1062.5C715.026 1056.1 710.552 1049.64 707.37 1042.48C703.275 1033.27 701.449 1023.2 699.659 1013.24C699.042 1010.57 698.823 1007.81 699.009 1005.08C699.545 1001.87 700.736 998.825 702.501 996.13C704.635 992.557 706.997 989.132 709.569 985.878C713.478 980.729 719.094 977.24 725.344 976.079Z" fill="#6C63FF"/>
<path id="Vector_42" d="M814.295 1130.28C814.295 1169.11 761.68 1157.1 697.257 1157.1C632.834 1157.1 581 1169.11 581 1130.28C581 1091.45 633.609 1083 698.031 1083C762.454 1083 814.295 1091.45 814.295 1130.28Z" fill="#3F3D56"/>
</g>
<g id="tree1">
<path id="Vector_43" d="M465 687H455V1037H465V687Z" fill="#3F3D56"/>
<path id="Vector_44" d="M560 757H553V1027H560V757Z" fill="#3F3D56"/>
<path id="Vector_45" d="M630.998 709.692C631.486 804.133 556.885 881 556.885 881C556.885 881 481.491 804.748 481.002 710.308C480.514 615.867 555.115 539 555.115 539C555.115 539 630.509 615.251 630.998 709.692Z" fill="#3F3D56"/>
<path id="Vector_46" d="M556.997 639.6C557.629 762.207 461.144 862 461.144 862C461.144 862 363.635 763.007 363.003 640.4C362.371 517.792 458.856 418 458.856 418C458.856 418 556.365 516.993 556.997 639.6Z" fill="#3F3D56"/>
<path id="Vector_47" d="M377 757H369V1027H377V757Z" fill="#3F3D56"/>
<path id="Vector_48" d="M447.998 709.692C448.486 804.133 373.885 881 373.885 881C373.885 881 298.491 804.748 298.002 710.308C297.514 615.867 372.115 539 372.115 539C372.115 539 447.509 615.251 447.998 709.692Z" fill="#3F3D56"/>
<path id="Vector_49" d="M273 71C286.807 71 298 59.8072 298 46.0001C298 32.1929 286.807 21 273 21C259.193 21 248 32.1929 248 46.0001C248 59.8072 259.193 71 273 71Z" fill="#6C63FF"/>
</g>
<g id="starsmall">
<path id="Vector_50" d="M361.895 16.2795C363.88 16.2795 365.49 14.5537 365.49 12.4247C365.49 10.2957 363.88 8.56982 361.895 8.56982C359.909 8.56982 358.3 10.2957 358.3 12.4247C358.3 14.5537 359.909 16.2795 361.895 16.2795Z" fill="#F2F2F2"/>
<path id="Vector_51" d="M262.433 148.63C264.419 148.63 266.028 146.904 266.028 144.775C266.028 142.646 264.419 140.92 262.433 140.92C260.448 140.92 258.839 142.646 258.839 144.775C258.839 146.904 260.448 148.63 262.433 148.63Z" fill="#F2F2F2"/>
<path id="Vector_52" d="M505.694 170.474C507.017 170.474 508.09 169.324 508.09 167.904C508.09 166.485 507.017 165.334 505.694 165.334C504.37 165.334 503.297 166.485 503.297 167.904C503.297 169.324 504.37 170.474 505.694 170.474Z" fill="#F2F2F2"/>
<path id="Vector_53" d="M2.39665 228.297C3.72029 228.297 4.79331 227.146 4.79331 225.727C4.79331 224.308 3.72029 223.157 2.39665 223.157C1.07302 223.157 0 224.308 0 225.727C0 227.146 1.07302 228.297 2.39665 228.297Z" fill="#F2F2F2"/>
<path id="Vector_54" d="M520.074 11.1398C521.397 11.1398 522.47 9.98923 522.47 8.56991C522.47 7.15059 521.397 6 520.074 6C518.75 6 517.677 7.15059 517.677 8.56991C517.677 9.98923 518.75 11.1398 520.074 11.1398Z" fill="#F2F2F2"/>
<path id="Vector_55" d="M668.666 134.495C669.99 134.495 671.063 133.345 671.063 131.925C671.063 130.506 669.99 129.356 668.666 129.356C667.342 129.356 666.269 130.506 666.269 131.925C666.269 133.345 667.342 134.495 668.666 134.495Z" fill="#F2F2F2"/>
<path id="Vector_56" d="M814.862 329.808C816.185 329.808 817.259 328.658 817.259 327.238C817.259 325.819 816.185 324.669 814.862 324.669C813.538 324.669 812.465 325.819 812.465 327.238C812.465 328.658 813.538 329.808 814.862 329.808Z" fill="#F2F2F2"/>
<path id="Vector_57" d="M150.989 37.1726H147.682V33.6261H145.908V37.1726H142.601V39.0756H145.908V42.6208H147.682V39.0756H150.989V37.1726Z" fill="#F2F2F2"/>
<path id="Vector_58" d="M800.482 456.514H797.175V452.967H795.401V456.514H792.094V458.417H795.401V461.962H797.175V458.417H800.482V456.514Z" fill="#F2F2F2"/>
<path id="Vector_59" d="M433.046 80.6875C435.032 80.6875 436.641 78.9616 436.641 76.8326C436.641 74.7037 435.032 72.9778 433.046 72.9778C431.061 72.9778 429.451 74.7037 429.451 76.8326C429.451 78.9616 431.061 80.6875 433.046 80.6875Z" fill="#F2F2F2"/>
<path id="Vector_60" d="M333.585 213.038C335.571 213.038 337.18 211.312 337.18 209.183C337.18 207.054 335.571 205.328 333.585 205.328C331.6 205.328 329.99 207.054 329.99 209.183C329.99 211.312 331.6 213.038 333.585 213.038Z" fill="#F2F2F2"/>
<path id="Vector_61" d="M576.846 234.882C578.169 234.882 579.242 233.731 579.242 232.312C579.242 230.893 578.169 229.742 576.846 229.742C575.522 229.742 574.449 230.893 574.449 232.312C574.449 233.731 575.522 234.882 576.846 234.882Z" fill="#F2F2F2"/>
<path id="Vector_62" d="M73.5484 292.705C74.8721 292.705 75.9451 291.554 75.9451 290.135C75.9451 288.716 74.8721 287.565 73.5484 287.565C72.2248 287.565 71.1518 288.716 71.1518 290.135C71.1518 291.554 72.2248 292.705 73.5484 292.705Z" fill="#F2F2F2"/>
<path id="Vector_63" d="M591.225 75.5477C592.549 75.5477 593.622 74.3971 593.622 72.9777C593.622 71.5584 592.549 70.4078 591.225 70.4078C589.902 70.4078 588.829 71.5584 588.829 72.9777C588.829 74.3971 589.902 75.5477 591.225 75.5477Z" fill="#F2F2F2"/>
<path id="Vector_64" d="M739.818 198.903C741.142 198.903 742.215 197.753 742.215 196.333C742.215 194.914 741.142 193.763 739.818 193.763C738.494 193.763 737.421 194.914 737.421 196.333C737.421 197.753 738.494 198.903 739.818 198.903Z" fill="#F2F2F2"/>
<path id="Vector_65" d="M886.014 394.216C887.337 394.216 888.41 393.066 888.41 391.646C888.41 390.227 887.337 389.076 886.014 389.076C884.69 389.076 883.617 390.227 883.617 391.646C883.617 393.066 884.69 394.216 886.014 394.216Z" fill="#F2F2F2"/>
<path id="Vector_66" d="M222.141 101.58H218.834V98.0339H217.06V101.58H213.753V103.483H217.06V107.029H218.834V103.483H222.141V101.58Z" fill="#F2F2F2"/>
<path id="Vector_67" d="M871.634 520.921H868.326V517.375H866.553V520.921H863.246V522.824H866.553V526.37H868.326V522.824H871.634V520.921Z" fill="#F2F2F2"/>
<path id="Vector_68" d="M1032.49 10.2795C1034.48 10.2795 1036.09 8.55367 1036.09 6.42469C1036.09 4.2957 1034.48 2.56982 1032.49 2.56982C1030.51 2.56982 1028.9 4.2957 1028.9 6.42469C1028.9 8.55367 1030.51 10.2795 1032.49 10.2795Z" fill="#F2F2F2"/>
<path id="Vector_69" d="M933.031 142.63C935.016 142.63 936.626 140.904 936.626 138.775C936.626 136.646 935.016 134.92 933.031 134.92C931.045 134.92 929.436 136.646 929.436 138.775C929.436 140.904 931.045 142.63 933.031 142.63Z" fill="#F2F2F2"/>
<path id="Vector_70" d="M1176.29 164.474C1177.61 164.474 1178.69 163.324 1178.69 161.904C1178.69 160.485 1177.61 159.334 1176.29 159.334C1174.97 159.334 1173.89 160.485 1173.89 161.904C1173.89 163.324 1174.97 164.474 1176.29 164.474Z" fill="#F2F2F2"/>
<path id="Vector_71" d="M672.994 222.297C674.317 222.297 675.39 221.146 675.39 219.727C675.39 218.308 674.317 217.157 672.994 217.157C671.67 217.157 670.597 218.308 670.597 219.727C670.597 221.146 671.67 222.297 672.994 222.297Z" fill="#F2F2F2"/>
<path id="Vector_72" d="M1190.67 5.13982C1191.99 5.13982 1193.07 3.98923 1193.07 2.56991C1193.07 1.15059 1191.99 0 1190.67 0C1189.35 0 1188.27 1.15059 1188.27 2.56991C1188.27 3.98923 1189.35 5.13982 1190.67 5.13982Z" fill="#F2F2F2"/>
<path id="Vector_73" d="M1339.26 128.495C1340.59 128.495 1341.66 127.345 1341.66 125.925C1341.66 124.506 1340.59 123.356 1339.26 123.356C1337.94 123.356 1336.87 124.506 1336.87 125.925C1336.87 127.345 1337.94 128.495 1339.26 128.495Z" fill="#F2F2F2"/>
<path id="Vector_74" d="M1485.46 323.808C1486.78 323.808 1487.86 322.658 1487.86 321.238C1487.86 319.819 1486.78 318.669 1485.46 318.669C1484.14 318.669 1483.06 319.819 1483.06 321.238C1483.06 322.658 1484.14 323.808 1485.46 323.808Z" fill="#F2F2F2"/>
<path id="Vector_75" d="M821.586 31.1726H818.279V27.6261H816.505V31.1726H813.198V33.0756H816.505V36.6208H818.279V33.0756H821.586V31.1726Z" fill="#F2F2F2"/>
<path id="Vector_76" d="M1471.08 450.514H1467.77V446.967H1466V450.514H1462.69V452.417H1466V455.962H1467.77V452.417H1471.08V450.514Z" fill="#F2F2F2"/>
<path id="Vector_77" d="M1103.64 74.6875C1105.63 74.6875 1107.24 72.9616 1107.24 70.8326C1107.24 68.7037 1105.63 66.9778 1103.64 66.9778C1101.66 66.9778 1100.05 68.7037 1100.05 70.8326C1100.05 72.9616 1101.66 74.6875 1103.64 74.6875Z" fill="#F2F2F2"/>
<path id="Vector_78" d="M1004.18 207.038C1006.17 207.038 1007.78 205.312 1007.78 203.183C1007.78 201.054 1006.17 199.328 1004.18 199.328C1002.2 199.328 1000.59 201.054 1000.59 203.183C1000.59 205.312 1002.2 207.038 1004.18 207.038Z" fill="#F2F2F2"/>
<path id="Vector_79" d="M1247.44 228.882C1248.77 228.882 1249.84 227.731 1249.84 226.312C1249.84 224.893 1248.77 223.742 1247.44 223.742C1246.12 223.742 1245.05 224.893 1245.05 226.312C1245.05 227.731 1246.12 228.882 1247.44 228.882Z" fill="#F2F2F2"/>
<path id="Vector_80" d="M744.146 286.705C745.469 286.705 746.542 285.554 746.542 284.135C746.542 282.716 745.469 281.565 744.146 281.565C742.822 281.565 741.749 282.716 741.749 284.135C741.749 285.554 742.822 286.705 744.146 286.705Z" fill="#F2F2F2"/>
<path id="Vector_81" d="M1261.82 69.5477C1263.15 69.5477 1264.22 68.3971 1264.22 66.9777C1264.22 65.5584 1263.15 64.4078 1261.82 64.4078C1260.5 64.4078 1259.43 65.5584 1259.43 66.9777C1259.43 68.3971 1260.5 69.5477 1261.82 69.5477Z" fill="#F2F2F2"/>
<path id="Vector_82" d="M1410.42 192.903C1411.74 192.903 1412.81 191.753 1412.81 190.333C1412.81 188.914 1411.74 187.763 1410.42 187.763C1409.09 187.763 1408.02 188.914 1408.02 190.333C1408.02 191.753 1409.09 192.903 1410.42 192.903Z" fill="#F2F2F2"/>
<path id="Vector_83" d="M1556.61 388.216C1557.93 388.216 1559.01 387.066 1559.01 385.646C1559.01 384.227 1557.93 383.076 1556.61 383.076C1555.29 383.076 1554.21 384.227 1554.21 385.646C1554.21 387.066 1555.29 388.216 1556.61 388.216Z" fill="#F2F2F2"/>
<path id="Vector_84" d="M892.738 95.5804H889.431V92.0339H887.657V95.5804H884.35V97.4834H887.657V101.029H889.431V97.4834H892.738V95.5804Z" fill="#F2F2F2"/>
<path id="Vector_85" d="M1542.23 514.921H1538.92V511.375H1537.15V514.921H1533.84V516.824H1537.15V520.37H1538.92V516.824H1542.23V514.921Z" fill="#F2F2F2"/>
<path id="Vector_86" d="M1528.48 42.2795C1530.47 42.2795 1532.08 40.5537 1532.08 38.4247C1532.08 36.2957 1530.47 34.5698 1528.48 34.5698C1526.5 34.5698 1524.89 36.2957 1524.89 38.4247C1524.89 40.5537 1526.5 42.2795 1528.48 42.2795Z" fill="#F2F2F2"/>
<path id="Vector_87" d="M1429.02 174.63C1431.01 174.63 1432.62 172.904 1432.62 170.775C1432.62 168.646 1431.01 166.92 1429.02 166.92C1427.04 166.92 1425.43 168.646 1425.43 170.775C1425.43 172.904 1427.04 174.63 1429.02 174.63Z" fill="#F2F2F2"/>
<path id="Vector_88" d="M1672.28 196.474C1673.61 196.474 1674.68 195.324 1674.68 193.904C1674.68 192.485 1673.61 191.334 1672.28 191.334C1670.96 191.334 1669.89 192.485 1669.89 193.904C1669.89 195.324 1670.96 196.474 1672.28 196.474Z" fill="#F2F2F2"/>
<path id="Vector_89" d="M1168.99 254.297C1170.31 254.297 1171.38 253.146 1171.38 251.727C1171.38 250.308 1170.31 249.157 1168.99 249.157C1167.66 249.157 1166.59 250.308 1166.59 251.727C1166.59 253.146 1167.66 254.297 1168.99 254.297Z" fill="#F2F2F2"/>
<path id="Vector_90" d="M1686.66 37.1398C1687.99 37.1398 1689.06 35.9892 1689.06 34.5699C1689.06 33.1506 1687.99 32 1686.66 32C1685.34 32 1684.27 33.1506 1684.27 34.5699C1684.27 35.9892 1685.34 37.1398 1686.66 37.1398Z" fill="#F2F2F2"/>
<path id="Vector_91" d="M1835.26 160.495C1836.58 160.495 1837.65 159.345 1837.65 157.925C1837.65 156.506 1836.58 155.356 1835.26 155.356C1833.93 155.356 1832.86 156.506 1832.86 157.925C1832.86 159.345 1833.93 160.495 1835.26 160.495Z" fill="#F2F2F2"/>
<path id="Vector_92" d="M1981.45 355.808C1982.78 355.808 1983.85 354.658 1983.85 353.238C1983.85 351.819 1982.78 350.669 1981.45 350.669C1980.13 350.669 1979.05 351.819 1979.05 353.238C1979.05 354.658 1980.13 355.808 1981.45 355.808Z" fill="#F2F2F2"/>
<path id="Vector_93" d="M1317.58 63.1726H1314.27V59.6261H1312.5V63.1726H1309.19V65.0756H1312.5V68.6208H1314.27V65.0756H1317.58V63.1726Z" fill="#F2F2F2"/>
<path id="Vector_94" d="M1967.07 482.514H1963.76V478.967H1961.99V482.514H1958.68V484.417H1961.99V487.962H1963.76V484.417H1967.07V482.514Z" fill="#F2F2F2"/>
<path id="Vector_95" d="M1599.64 106.688C1601.62 106.688 1603.23 104.962 1603.23 102.833C1603.23 100.704 1601.62 98.9778 1599.64 98.9778C1597.65 98.9778 1596.04 100.704 1596.04 102.833C1596.04 104.962 1597.65 106.688 1599.64 106.688Z" fill="#F2F2F2"/>
<path id="Vector_96" d="M1500.17 239.038C1502.16 239.038 1503.77 237.312 1503.77 235.183C1503.77 233.054 1502.16 231.328 1500.17 231.328C1498.19 231.328 1496.58 233.054 1496.58 235.183C1496.58 237.312 1498.19 239.038 1500.17 239.038Z" fill="#F2F2F2"/>
<path id="Vector_97" d="M1743.44 260.882C1744.76 260.882 1745.83 259.731 1745.83 258.312C1745.83 256.893 1744.76 255.742 1743.44 255.742C1742.11 255.742 1741.04 256.893 1741.04 258.312C1741.04 259.731 1742.11 260.882 1743.44 260.882Z" fill="#F2F2F2"/>
<path id="Vector_98" d="M1240.14 318.705C1241.46 318.705 1242.53 317.554 1242.53 316.135C1242.53 314.716 1241.46 313.565 1240.14 313.565C1238.81 313.565 1237.74 314.716 1237.74 316.135C1237.74 317.554 1238.81 318.705 1240.14 318.705Z" fill="#F2F2F2"/>
<path id="Vector_99" d="M1757.81 101.548C1759.14 101.548 1760.21 100.397 1760.21 98.9777C1760.21 97.5584 1759.14 96.4078 1757.81 96.4078C1756.49 96.4078 1755.42 97.5584 1755.42 98.9777C1755.42 100.397 1756.49 101.548 1757.81 101.548Z" fill="#F2F2F2"/>
<path id="Vector_100" d="M1906.41 224.903C1907.73 224.903 1908.8 223.753 1908.8 222.333C1908.8 220.914 1907.73 219.763 1906.41 219.763C1905.08 219.763 1904.01 220.914 1904.01 222.333C1904.01 223.753 1905.08 224.903 1906.41 224.903Z" fill="#F2F2F2"/>
<path id="Vector_101" d="M2052.6 420.216C2053.93 420.216 2055 419.066 2055 417.646C2055 416.227 2053.93 415.076 2052.6 415.076C2051.28 415.076 2050.21 416.227 2050.21 417.646C2050.21 419.066 2051.28 420.216 2052.6 420.216Z" fill="#F2F2F2"/>
<path id="Vector_102" d="M1388.73 127.58H1385.42V124.034H1383.65V127.58H1380.34V129.483H1383.65V133.029H1385.42V129.483H1388.73V127.58Z" fill="#F2F2F2"/>
<path id="Vector_103" d="M2038.22 546.921H2034.92V543.375H2033.14V546.921H2029.84V548.824H2033.14V552.37H2034.92V548.824H2038.22V546.921Z" fill="#F2F2F2"/>
<path id="Vector_104" d="M715.901 172.28C717.886 172.28 719.496 170.554 719.496 168.425C719.496 166.296 717.886 164.57 715.901 164.57C713.915 164.57 712.306 166.296 712.306 168.425C712.306 170.554 713.915 172.28 715.901 172.28Z" fill="#F2F2F2"/>
<path id="Vector_105" d="M616.44 304.63C618.425 304.63 620.035 302.904 620.035 300.775C620.035 298.646 618.425 296.92 616.44 296.92C614.454 296.92 612.845 298.646 612.845 300.775C612.845 302.904 614.454 304.63 616.44 304.63Z" fill="#F2F2F2"/>
<path id="Vector_106" d="M859.7 326.474C861.024 326.474 862.097 325.324 862.097 323.904C862.097 322.485 861.024 321.334 859.7 321.334C858.376 321.334 857.303 322.485 857.303 323.904C857.303 325.324 858.376 326.474 859.7 326.474Z" fill="#F2F2F2"/>
<path id="Vector_107" d="M356.403 384.297C357.727 384.297 358.8 383.146 358.8 381.727C358.8 380.308 357.727 379.157 356.403 379.157C355.079 379.157 354.006 380.308 354.006 381.727C354.006 383.146 355.079 384.297 356.403 384.297Z" fill="#F2F2F2"/>
<path id="Vector_108" d="M874.08 167.14C875.404 167.14 876.477 165.989 876.477 164.57C876.477 163.151 875.404 162 874.08 162C872.756 162 871.683 163.151 871.683 164.57C871.683 165.989 872.756 167.14 874.08 167.14Z" fill="#F2F2F2"/>
<path id="Vector_109" d="M1022.67 290.495C1024 290.495 1025.07 289.345 1025.07 287.925C1025.07 286.506 1024 285.356 1022.67 285.356C1021.35 285.356 1020.28 286.506 1020.28 287.925C1020.28 289.345 1021.35 290.495 1022.67 290.495Z" fill="#F2F2F2"/>
<path id="Vector_110" d="M1168.87 485.808C1170.19 485.808 1171.26 484.658 1171.26 483.238C1171.26 481.819 1170.19 480.669 1168.87 480.669C1167.54 480.669 1166.47 481.819 1166.47 483.238C1166.47 484.658 1167.54 485.808 1168.87 485.808Z" fill="#F2F2F2"/>
<path id="Vector_111" d="M504.995 193.173H501.688V189.626H499.914V193.173H496.607V195.076H499.914V198.621H501.688V195.076H504.995V193.173Z" fill="#F2F2F2"/>
<path id="Vector_112" d="M1154.49 612.514H1151.18V608.967H1149.41V612.514H1146.1V614.417H1149.41V617.962H1151.18V614.417H1154.49V612.514Z" fill="#F2F2F2"/>
<path id="Vector_113" d="M787.053 236.688C789.038 236.688 790.648 234.962 790.648 232.833C790.648 230.704 789.038 228.978 787.053 228.978C785.067 228.978 783.458 230.704 783.458 232.833C783.458 234.962 785.067 236.688 787.053 236.688Z" fill="#F2F2F2"/>
<path id="Vector_114" d="M687.592 369.038C689.577 369.038 691.186 367.312 691.186 365.183C691.186 363.054 689.577 361.328 687.592 361.328C685.606 361.328 683.997 363.054 683.997 365.183C683.997 367.312 685.606 369.038 687.592 369.038Z" fill="#F2F2F2"/>
<path id="Vector_115" d="M930.852 390.882C932.175 390.882 933.248 389.731 933.248 388.312C933.248 386.893 932.175 385.742 930.852 385.742C929.528 385.742 928.455 386.893 928.455 388.312C928.455 389.731 929.528 390.882 930.852 390.882Z" fill="#F2F2F2"/>
<path id="Vector_116" d="M427.555 448.705C428.878 448.705 429.951 447.554 429.951 446.135C429.951 444.716 428.878 443.565 427.555 443.565C426.231 443.565 425.158 444.716 425.158 446.135C425.158 447.554 426.231 448.705 427.555 448.705Z" fill="#F2F2F2"/>
<path id="Vector_117" d="M945.232 231.548C946.555 231.548 947.628 230.397 947.628 228.978C947.628 227.558 946.555 226.408 945.232 226.408C943.908 226.408 942.835 227.558 942.835 228.978C942.835 230.397 943.908 231.548 945.232 231.548Z" fill="#F2F2F2"/>
<path id="Vector_118" d="M1093.82 354.903C1095.15 354.903 1096.22 353.753 1096.22 352.333C1096.22 350.914 1095.15 349.763 1093.82 349.763C1092.5 349.763 1091.43 350.914 1091.43 352.333C1091.43 353.753 1092.5 354.903 1093.82 354.903Z" fill="#F2F2F2"/>
<path id="Vector_119" d="M1240.02 550.216C1241.34 550.216 1242.42 549.066 1242.42 547.646C1242.42 546.227 1241.34 545.076 1240.02 545.076C1238.7 545.076 1237.62 546.227 1237.62 547.646C1237.62 549.066 1238.7 550.216 1240.02 550.216Z" fill="#F2F2F2"/>
<path id="Vector_120" d="M576.147 257.58H572.84V254.034H571.066V257.58H567.759V259.483H571.066V263.029H572.84V259.483H576.147V257.58Z" fill="#F2F2F2"/>
<path id="Vector_121" d="M1225.64 676.921H1222.33V673.375H1220.56V676.921H1217.25V678.824H1220.56V682.37H1222.33V678.824H1225.64V676.921Z" fill="#F2F2F2"/>
<path id="Vector_122" d="M1484.35 306.28C1486.34 306.28 1487.95 304.554 1487.95 302.425C1487.95 300.296 1486.34 298.57 1484.35 298.57C1482.37 298.57 1480.76 300.296 1480.76 302.425C1480.76 304.554 1482.37 306.28 1484.35 306.28Z" fill="#F2F2F2"/>
<path id="Vector_123" d="M1384.89 438.63C1386.88 438.63 1388.49 436.904 1388.49 434.775C1388.49 432.646 1386.88 430.92 1384.89 430.92C1382.91 430.92 1381.3 432.646 1381.3 434.775C1381.3 436.904 1382.91 438.63 1384.89 438.63Z" fill="#F2F2F2"/>
<path id="Vector_124" d="M1628.15 460.474C1629.48 460.474 1630.55 459.324 1630.55 457.904C1630.55 456.485 1629.48 455.334 1628.15 455.334C1626.83 455.334 1625.76 456.485 1625.76 457.904C1625.76 459.324 1626.83 460.474 1628.15 460.474Z" fill="#F2F2F2"/>
<path id="Vector_125" d="M1124.86 518.297C1126.18 518.297 1127.25 517.146 1127.25 515.727C1127.25 514.308 1126.18 513.157 1124.86 513.157C1123.53 513.157 1122.46 514.308 1122.46 515.727C1122.46 517.146 1123.53 518.297 1124.86 518.297Z" fill="#F2F2F2"/>
<path id="Vector_126" d="M1642.53 301.14C1643.86 301.14 1644.93 299.989 1644.93 298.57C1644.93 297.151 1643.86 296 1642.53 296C1641.21 296 1640.14 297.151 1640.14 298.57C1640.14 299.989 1641.21 301.14 1642.53 301.14Z" fill="#F2F2F2"/>
<path id="Vector_127" d="M1791.12 424.495C1792.45 424.495 1793.52 423.345 1793.52 421.925C1793.52 420.506 1792.45 419.356 1791.12 419.356C1789.8 419.356 1788.73 420.506 1788.73 421.925C1788.73 423.345 1789.8 424.495 1791.12 424.495Z" fill="#F2F2F2"/>
<path id="Vector_128" d="M1937.32 619.808C1938.64 619.808 1939.72 618.658 1939.72 617.238C1939.72 615.819 1938.64 614.669 1937.32 614.669C1936 614.669 1934.92 615.819 1934.92 617.238C1934.92 618.658 1936 619.808 1937.32 619.808Z" fill="#F2F2F2"/>
<path id="Vector_129" d="M1273.45 327.173H1270.14V323.626H1268.37V327.173H1265.06V329.076H1268.37V332.621H1270.14V329.076H1273.45V327.173Z" fill="#F2F2F2"/>
<path id="Vector_130" d="M1922.94 746.514H1919.63V742.967H1917.86V746.514H1914.55V748.417H1917.86V751.962H1919.63V748.417H1922.94V746.514Z" fill="#F2F2F2"/>
<path id="Vector_131" d="M1555.51 370.687C1557.49 370.687 1559.1 368.962 1559.1 366.833C1559.1 364.704 1557.49 362.978 1555.51 362.978C1553.52 362.978 1551.91 364.704 1551.91 366.833C1551.91 368.962 1553.52 370.687 1555.51 370.687Z" fill="#F2F2F2"/>
<path id="Vector_132" d="M1456.04 503.038C1458.03 503.038 1459.64 501.312 1459.64 499.183C1459.64 497.054 1458.03 495.328 1456.04 495.328C1454.06 495.328 1452.45 497.054 1452.45 499.183C1452.45 501.312 1454.06 503.038 1456.04 503.038Z" fill="#F2F2F2"/>
<path id="Vector_133" d="M1699.3 524.882C1700.63 524.882 1701.7 523.731 1701.7 522.312C1701.7 520.893 1700.63 519.742 1699.3 519.742C1697.98 519.742 1696.91 520.893 1696.91 522.312C1696.91 523.731 1697.98 524.882 1699.3 524.882Z" fill="#F2F2F2"/>
<path id="Vector_134" d="M1196.01 582.705C1197.33 582.705 1198.4 581.554 1198.4 580.135C1198.4 578.716 1197.33 577.565 1196.01 577.565C1194.68 577.565 1193.61 578.716 1193.61 580.135C1193.61 581.554 1194.68 582.705 1196.01 582.705Z" fill="#F2F2F2"/>
<path id="Vector_135" d="M1713.68 365.548C1715.01 365.548 1716.08 364.397 1716.08 362.978C1716.08 361.558 1715.01 360.408 1713.68 360.408C1712.36 360.408 1711.29 361.558 1711.29 362.978C1711.29 364.397 1712.36 365.548 1713.68 365.548Z" fill="#F2F2F2"/>
<path id="Vector_136" d="M1862.28 488.903C1863.6 488.903 1864.67 487.753 1864.67 486.333C1864.67 484.914 1863.6 483.763 1862.28 483.763C1860.95 483.763 1859.88 484.914 1859.88 486.333C1859.88 487.753 1860.95 488.903 1862.28 488.903Z" fill="#F2F2F2"/>
<path id="Vector_137" d="M2008.47 684.216C2009.8 684.216 2010.87 683.066 2010.87 681.646C2010.87 680.227 2009.8 679.076 2008.47 679.076C2007.15 679.076 2006.08 680.227 2006.08 681.646C2006.08 683.066 2007.15 684.216 2008.47 684.216Z" fill="#F2F2F2"/>
<path id="Vector_138" d="M1344.6 391.58H1341.29V388.034H1339.52V391.58H1336.21V393.483H1339.52V397.029H1341.29V393.483H1344.6V391.58Z" fill="#F2F2F2"/>
<path id="Vector_139" d="M1994.09 810.921H1990.79V807.375H1989.01V810.921H1985.7V812.824H1989.01V816.37H1990.79V812.824H1994.09V810.921Z" fill="#F2F2F2"/>
<path id="Vector_140" d="M437.685 119.28C439.67 119.28 441.279 117.554 441.279 115.425C441.279 113.296 439.67 111.57 437.685 111.57C435.699 111.57 434.09 113.296 434.09 115.425C434.09 117.554 435.699 119.28 437.685 119.28Z" fill="#F2F2F2"/>
<path id="Vector_141" d="M338.223 251.63C340.209 251.63 341.818 249.904 341.818 247.775C341.818 245.646 340.209 243.92 338.223 243.92C336.238 243.92 334.628 245.646 334.628 247.775C334.628 249.904 336.238 251.63 338.223 251.63Z" fill="#F2F2F2"/>
<path id="Vector_142" d="M581.484 273.474C582.807 273.474 583.88 272.324 583.88 270.904C583.88 269.485 582.807 268.334 581.484 268.334C580.16 268.334 579.087 269.485 579.087 270.904C579.087 272.324 580.16 273.474 581.484 273.474Z" fill="#F2F2F2"/>
<path id="Vector_143" d="M78.1866 331.297C79.5103 331.297 80.5833 330.146 80.5833 328.727C80.5833 327.308 79.5103 326.157 78.1866 326.157C76.863 326.157 75.79 327.308 75.79 328.727C75.79 330.146 76.863 331.297 78.1866 331.297Z" fill="#F2F2F2"/>
<path id="Vector_144" d="M595.864 114.14C597.187 114.14 598.26 112.989 598.26 111.57C598.26 110.151 597.187 109 595.864 109C594.54 109 593.467 110.151 593.467 111.57C593.467 112.989 594.54 114.14 595.864 114.14Z" fill="#F2F2F2"/>
<path id="Vector_145" d="M744.456 237.495C745.78 237.495 746.853 236.345 746.853 234.925C746.853 233.506 745.78 232.356 744.456 232.356C743.132 232.356 742.059 233.506 742.059 234.925C742.059 236.345 743.132 237.495 744.456 237.495Z" fill="#F2F2F2"/>
<path id="Vector_146" d="M890.652 432.808C891.975 432.808 893.048 431.658 893.048 430.238C893.048 428.819 891.975 427.669 890.652 427.669C889.328 427.669 888.255 428.819 888.255 430.238C888.255 431.658 889.328 432.808 890.652 432.808Z" fill="#F2F2F2"/>
<path id="Vector_147" d="M226.779 140.173H223.472V136.626H221.698V140.173H218.391V142.076H221.698V145.621H223.472V142.076H226.779V140.173Z" fill="#F2F2F2"/>
<path id="Vector_148" d="M876.272 559.514H872.965V555.967H871.191V559.514H867.884V561.417H871.191V564.962H872.965V561.417H876.272V559.514Z" fill="#F2F2F2"/>
<path id="Vector_149" d="M508.836 183.688C510.822 183.688 512.431 181.962 512.431 179.833C512.431 177.704 510.822 175.978 508.836 175.978C506.851 175.978 505.241 177.704 505.241 179.833C505.241 181.962 506.851 183.688 508.836 183.688Z" fill="#F2F2F2"/>
<path id="Vector_150" d="M409.375 316.038C411.361 316.038 412.97 314.312 412.97 312.183C412.97 310.054 411.361 308.328 409.375 308.328C407.39 308.328 405.78 310.054 405.78 312.183C405.78 314.312 407.39 316.038 409.375 316.038Z" fill="#F2F2F2"/>
<path id="Vector_151" d="M652.635 337.882C653.959 337.882 655.032 336.731 655.032 335.312C655.032 333.893 653.959 332.742 652.635 332.742C651.312 332.742 650.239 333.893 650.239 335.312C650.239 336.731 651.312 337.882 652.635 337.882Z" fill="#F2F2F2"/>
<path id="Vector_152" d="M149.338 395.705C150.662 395.705 151.735 394.554 151.735 393.135C151.735 391.716 150.662 390.565 149.338 390.565C148.015 390.565 146.942 391.716 146.942 393.135C146.942 394.554 148.015 395.705 149.338 395.705Z" fill="#F2F2F2"/>
<path id="Vector_153" d="M667.015 178.548C668.339 178.548 669.412 177.397 669.412 175.978C669.412 174.558 668.339 173.408 667.015 173.408C665.692 173.408 664.619 174.558 664.619 175.978C664.619 177.397 665.692 178.548 667.015 178.548Z" fill="#F2F2F2"/>
<path id="Vector_154" d="M815.608 301.903C816.931 301.903 818.004 300.753 818.004 299.333C818.004 297.914 816.931 296.763 815.608 296.763C814.284 296.763 813.211 297.914 813.211 299.333C813.211 300.753 814.284 301.903 815.608 301.903Z" fill="#F2F2F2"/>
<path id="Vector_155" d="M961.804 497.216C963.127 497.216 964.2 496.066 964.2 494.646C964.2 493.227 963.127 492.076 961.804 492.076C960.48 492.076 959.407 493.227 959.407 494.646C959.407 496.066 960.48 497.216 961.804 497.216Z" fill="#F2F2F2"/>
<path id="Vector_156" d="M297.931 204.58H294.623V201.034H292.85V204.58H289.543V206.483H292.85V210.029H294.623V206.483H297.931V204.58Z" fill="#F2F2F2"/>
<path id="Vector_157" d="M947.424 623.921H944.116V620.375H942.343V623.921H939.035V625.824H942.343V629.37H944.116V625.824H947.424V623.921Z" fill="#F2F2F2"/>
</g>
<g id="shooting">
<path id="Vector_158" opacity="0.8" d="M952.923 346.255L985.893 307.657L1018.86 269.058L1037.48 247.269C1038.51 246.063 1036.92 244.182 1035.89 245.388L1002.92 283.986L969.946 322.585L951.334 344.374C950.304 345.58 951.893 347.461 952.923 346.255V346.255Z" fill="url(#paint0_linear_20_13)"/>
<path id="Vector_159" opacity="0.8" d="M1655.92 452.255L1688.89 413.657L1721.86 375.058L1740.48 353.269C1741.51 352.063 1739.92 350.182 1738.89 351.388L1705.92 389.986L1672.95 428.585L1654.33 450.374C1653.3 451.58 1654.89 453.461 1655.92 452.255V452.255Z" fill="url(#paint1_linear_20_13)"/>
<path id="Vector_160" opacity="0.8" d="M799.923 371.255L832.893 332.657L865.864 294.058L884.476 272.269C885.506 271.063 883.917 269.182 882.887 270.388L849.917 308.986L816.946 347.585L798.334 369.374C797.304 370.58 798.893 372.461 799.923 371.255V371.255Z" fill="url(#paint2_linear_20_13)"/>
</g>
<g id="MOON">
<path id="Vector_161" d="M1553.5 332.385C1606.24 332.385 1649 289.99 1649 237.693C1649 185.395 1606.24 143 1553.5 143C1500.76 143 1458 185.395 1458 237.693C1458 289.99 1500.76 332.385 1553.5 332.385Z" fill="#E6E6E6"/>
<path id="Vector_162" d="M1544.11 183.361C1550.16 183.361 1555.07 178.496 1555.07 172.494C1555.07 166.493 1550.16 161.628 1544.11 161.628C1538.05 161.628 1533.15 166.493 1533.15 172.494C1533.15 178.496 1538.05 183.361 1544.11 183.361Z" fill="#CBCBCB"/>
<path id="Vector_163" d="M1562.89 292.024C1568.95 292.024 1573.85 287.159 1573.85 281.158C1573.85 275.157 1568.95 270.292 1562.89 270.292C1556.84 270.292 1551.93 275.157 1551.93 281.158C1551.93 287.159 1556.84 292.024 1562.89 292.024Z" fill="#CBCBCB"/>
<path id="Vector_164" d="M1605.16 228.378C1609.49 228.378 1612.99 224.903 1612.99 220.617C1612.99 216.33 1609.49 212.855 1605.16 212.855C1600.84 212.855 1597.34 216.33 1597.34 220.617C1597.34 224.903 1600.84 228.378 1605.16 228.378Z" fill="#CBCBCB"/>
<path id="Vector_165" d="M1515.93 270.292C1529.76 270.292 1540.98 259.172 1540.98 245.454C1540.98 231.737 1529.76 220.617 1515.93 220.617C1502.09 220.617 1490.88 231.737 1490.88 245.454C1490.88 259.172 1502.09 270.292 1515.93 270.292Z" fill="#CBCBCB"/>
</g>
<g id="starbig">
<path id="Star 1" d="M1632.5 476L1636.88 490.511H1651.05L1639.58 499.479L1643.96 513.989L1632.5 505.021L1621.04 513.989L1625.42 499.479L1613.95 490.511H1628.12L1632.5 476Z" fill="#D9D9D9"/>
<path id="Star 3" d="M752.5 408L756.878 422.511H771.046L759.584 431.479L763.962 445.989L752.5 437.021L741.038 445.989L745.416 431.479L733.954 422.511H748.122L752.5 408Z" fill="#D9D9D9"/>
<path id="Star 2" d="M121.5 311L125.878 325.511H140.046L128.584 334.479L132.962 348.989L121.5 340.021L110.038 348.989L114.416 334.479L102.954 325.511H117.122L121.5 311Z" fill="#D9D9D9"/>
</g>
</g>
<defs>
<filter id="filter0_d_20_13" x="315" y="1221" width="962.887" height="70.3819" filterUnits="userSpaceOnUse" color-interpolation-filters="sRGB">
<feFlood flood-opacity="0" result="BackgroundImageFix"/>
<feColorMatrix in="SourceAlpha" type="matrix" values="0 0 0 0 0 0 0 0 0 0 0 0 0 0 0 0 0 0 127 0" result="hardAlpha"/>
<feOffset dy="4"/>
<feGaussianBlur stdDeviation="2"/>
<feComposite in2="hardAlpha" operator="out"/>
<feColorMatrix type="matrix" values="0 0 0 0 0 0 0 0 0 0 0 0 0 0 0 0 0 0 0.25 0"/>
<feBlend mode="normal" in2="BackgroundImageFix" result="effect1_dropShadow_20_13"/>
<feBlend mode="normal" in="SourceGraphic" in2="effect1_dropShadow_20_13" result="shape"/>
</filter>
<linearGradient id="paint0_linear_20_13" x1="951" y1="295.822" x2="1037.81" y2="295.822" gradientUnits="userSpaceOnUse">
<stop stop-color="white"/>
<stop offset="1" stop-color="white" stop-opacity="0.3"/>
</linearGradient>
<linearGradient id="paint1_linear_20_13" x1="1654" y1="401.822" x2="1740.81" y2="401.822" gradientUnits="userSpaceOnUse">
<stop stop-color="white"/>
<stop offset="1" stop-color="white" stop-opacity="0.3"/>
</linearGradient>
<linearGradient id="paint2_linear_20_13" x1="798" y1="320.822" x2="884.81" y2="320.822" gradientUnits="userSpaceOnUse">
<stop stop-color="white"/>
<stop offset="1" stop-color="white" stop-opacity="0.3"/>
</linearGradient>
</defs>
</svg>
